HIERARCHY
ROOT Hips
{
	OFFSET 0.000000 0.000000 0.000000
	CHANNELS 6 Xposition Yposition Zposition Zrotation Yrotation Xrotation 
	JOINT LowerBack
	{
		OFFSET 0.000000 0.000000 0.000000
		CHANNELS 3 Zrotation Yrotation Xrotation
		JOINT Spine
		{
			OFFSET 0.028270 2.035590 -0.193380
			CHANNELS 3 Zrotation Yrotation Xrotation
			JOINT Spine1
			{
				OFFSET 0.056720 2.048850 -0.042750
				CHANNELS 3 Zrotation Yrotation Xrotation
				JOINT Neck
				{
					OFFSET 0.000000 0.000000 0.000000
					CHANNELS 3 Zrotation Yrotation Xrotation
					JOINT Neck1
					{
						OFFSET -0.054170 1.746240 0.172020
						CHANNELS 3 Zrotation Yrotation Xrotation
						JOINT Head
						{
							OFFSET 0.104070 1.761360 -0.123970
							CHANNELS 3 Zrotation Yrotation Xrotation
							End Site
							{
								OFFSET 0.000000 0.000000 0.000000
							}
						}
					}
				}
				JOINT LeftShoulder
				{
					OFFSET 0.000000 0.000000 0.000000
					CHANNELS 3 Zrotation Yrotation Xrotation
					JOINT LeftArm
					{
						OFFSET 3.362410 1.200890 -0.311210
						CHANNELS 3 Zrotation Yrotation Xrotation
						JOINT LeftForeArm
						{
							OFFSET 4.983000 -0.000000 -0.000000
							CHANNELS 3 Zrotation Yrotation Xrotation
							JOINT LeftHand
							{
								OFFSET 3.483560 -0.000000 -0.000000
								CHANNELS 3 Zrotation Yrotation Xrotation
								JOINT LeftFingerBase
								{
									OFFSET 0.000000 0.000000 0.000000
									CHANNELS 3 Zrotation Yrotation Xrotation
									JOINT LeftHandIndex1
									{
										OFFSET 0.715260 -0.000000 -0.000000
										CHANNELS 3 Zrotation Yrotation Xrotation
										End Site
										{
											OFFSET 0.000000 0.000000 0.000000
										}
									}
								}
								JOINT LThumb
								{
									OFFSET 0.000000 0.000000 0.000000
									CHANNELS 3 Zrotation Yrotation Xrotation
									End Site
									{
										OFFSET 0.000000 0.000000 0.000000
									}
								}
							}
						}
					}
				}
				JOINT RightShoulder
				{
					OFFSET 0.000000 0.000000 0.000000
					CHANNELS 3 Zrotation Yrotation Xrotation
					JOINT RightArm
					{
						OFFSET -3.136600 1.374050 -0.404650
						CHANNELS 3 Zrotation Yrotation Xrotation
						JOINT RightForeArm
						{
							OFFSET -5.241900 -0.000000 -0.000000
							CHANNELS 3 Zrotation Yrotation Xrotation
							JOINT RightHand
							{
								OFFSET -3.444170 -0.000000 -0.000000
								CHANNELS 3 Zrotation Yrotation Xrotation
								JOINT RightFingerBase
								{
									OFFSET 0.000000 0.000000 0.000000
									CHANNELS 3 Zrotation Yrotation Xrotation
									JOINT RightHandIndex1
									{
										OFFSET -0.622530 -0.000000 -0.000000
										CHANNELS 3 Zrotation Yrotation Xrotation
										End Site
										{
											OFFSET 0.000000 0.000000 0.000000
										}
									}
								}
								JOINT RThumb
								{
									OFFSET 0.000000 0.000000 0.000000
									CHANNELS 3 Zrotation Yrotation Xrotation
									End Site
									{
										OFFSET 0.000000 0.000000 0.000000
									}
								}
							}
						}
					}
				}
			}
		}
	}
}
}
MOTION
Frames: 13
Frame Time: 0.008333
4.952693 17.399985 0.368890 -171.639428 -74.622327 -173.339840 0.318427 -0.518215 4.107995 -0.563311 -0.385342 -2.576248 -5.969344 -0.304699 -2.186179 7.028010 -8.332669 -1.233215 -2.507179 -0.261060 1.628697 0.000000 0.000000 0.000000 2.835338 0.000676 -0.331403 -65.930309 -0.056089 15.558099 -179.726318 -81.372660 179.962498 6.044395 -0.114904 -0.025470 -0.106953 0.400353 -0.000000 0.000000 0.000000 0.000000 0.000000 0.000000 0.000000 2.292374 -3.907498 -0.830967 77.907560 13.357043 37.988856 179.881873 82.594007 179.946814 -8.090339 6.059664 -0.473753 0.159812 -0.528383 -0.000000 0.000000 0.000000 0.000000 0.000000 0.000000 0.000000 
4.950266 17.398913 0.376752 -172.006333 -73.825207 -172.990745 0.498387 -0.583338 4.091833 -0.527729 -0.462550 -2.558180 -5.963888 -0.382170 -2.101465 6.928527 -8.435621 -1.207332 -2.481356 -0.259905 1.637013 0.000000 0.000000 0.000000 3.021856 -0.081028 -0.307203 -64.755354 -0.133829 15.616719 -179.711230 -81.130593 179.964140 5.848179 0.100538 -0.013013 -0.105644 0.392871 -0.000000 0.000000 0.000000 0.000000 0.000000 0.000000 0.000000 2.082198 -4.043120 -0.825390 77.797086 13.647223 38.552822 179.864242 82.338911 179.947799 -8.000565 6.045420 -0.467738 0.161849 -0.528627 -0.000000 0.000000 0.000000 0.000000 0.000000 0.000000 0.000000 
4.946978 17.397893 0.385375 -172.344433 -73.019051 -172.677567 0.689157 -0.650574 4.062382 -0.490450 -0.543336 -2.540738 -5.959060 -0.463166 -2.011853 6.836638 -8.540644 -1.183996 -2.451956 -0.258523 1.644965 0.000000 0.000000 0.000000 3.262573 -0.159121 -0.279958 -63.486241 -0.307449 15.681401 -179.694777 -80.875140 179.965874 5.624277 0.309665 -0.001660 -0.103913 0.385976 -0.000000 0.000000 0.000000 0.000000 0.000000 0.000000 0.000000 1.863148 -4.176889 -0.820397 77.674428 13.944900 39.085306 179.846553 82.074531 179.948667 -7.922078 6.027439 -0.462021 0.163996 -0.529008 -0.000000 0.000000 0.000000 0.000000 0.000000 0.000000 0.000000 
4.942727 17.396967 0.394734 -172.658509 -72.204381 -172.392935 0.888404 -0.717813 4.018826 -0.452212 -0.625487 -2.524412 -5.955395 -0.545579 -1.918532 6.752211 -8.647691 -1.161190 -2.418646 -0.256926 1.653123 0.000000 0.000000 0.000000 3.555498 -0.243682 -0.249770 -62.114531 -0.572529 15.735971 -179.678262 -80.621422 179.967609 5.387882 0.507849 0.008189 -0.101965 0.379643 -0.000000 0.000000 0.000000 0.000000 0.000000 0.000000 0.000000 1.635657 -4.308927 -0.815707 77.538986 14.246381 39.583074 179.829250 81.806879 179.949385 -7.859901 6.005199 -0.457002 0.166325 -0.529453 -0.000000 0.000000 0.000000 0.000000 0.000000 0.000000 0.000000 
4.937630 17.396185 0.404737 -172.954016 -71.382692 -172.132136 1.093934 -0.782943 3.960883 -0.413753 -0.706753 -2.509331 -5.953843 -0.627196 -1.821787 6.675708 -8.756310 -1.138286 -2.380985 -0.255097 1.661655 0.000000 0.000000 0.000000 3.895806 -0.336917 -0.216089 -60.627996 -0.933855 15.772606 -179.662879 -80.386929 179.969257 5.154201 0.693930 0.016732 -0.100094 0.373809 -0.000000 0.000000 0.000000 0.000000 0.000000 0.000000 0.000000 1.400292 -4.438612 -0.811906 77.390641 14.546721 40.041287 179.812839 81.538440 179.949937 -7.816354 5.978642 -0.452783 0.168815 -0.529917 -0.000000 0.000000 0.000000 0.000000 0.000000 0.000000 0.000000 
4.931617 17.395601 0.415366 -173.233909 -70.557005 -171.890301 1.304349 -0.843826 3.887847 -0.375731 -0.784897 -2.495314 -5.956025 -0.705741 -1.720332 6.607958 -8.866470 -1.116258 -2.338399 -0.252984 1.670252 0.000000 0.000000 0.000000 4.271275 -0.432831 -0.177346 -59.006828 -1.406774 15.791861 -179.649480 -80.189119 179.970733 4.937736 0.871373 0.024073 -0.098699 0.368339 -0.000000 0.000000 0.000000 0.000000 0.000000 0.000000 0.000000 1.157380 -4.566065 -0.810250 77.229705 14.838516 40.453481 179.797793 81.268123 179.950321 -7.790061 5.947798 -0.449364 0.171342 -0.530370 0.000000 0.000000 0.000000 0.000000 0.000000 0.000000 0.000000 
4.924836 17.395132 0.426566 -173.498782 -69.728813 -171.666783 1.515164 -0.900854 3.801222 -0.338948 -0.860012 -2.482905 -5.961208 -0.781528 -1.617587 6.550965 -8.982464 -1.092435 -2.290947 -0.250641 1.679710 0.000000 0.000000 0.000000 4.691265 -0.557110 -0.135606 -57.257691 -1.952655 15.766182 -179.640371 -80.036752 179.971998 4.746541 1.028618 0.030012 -0.097527 0.363374 -0.000000 0.000000 0.000000 0.000000 0.000000 0.000000 0.000000 0.911780 -4.696274 -0.808112 77.051744 15.130846 40.828791 179.783924 81.001490 179.950530 -7.785297 5.914390 -0.446844 0.174134 -0.530793 -0.000000 0.000000 0.000000 0.000000 0.000000 0.000000 0.000000 
4.917318 17.394879 0.438282 -173.752598 -68.904030 -171.456778 1.725538 -0.952079 3.699851 -0.304010 -0.930069 -2.471450 -5.971885 -0.852354 -1.510187 6.506880 -9.103014 -1.070392 -2.237881 -0.247959 1.688965 0.000000 0.000000 0.000000 5.133383 -0.688302 -0.087401 -55.349756 -2.607897 15.711095 -179.635628 -79.947722 179.973009 4.588866 1.176845 0.035349 -0.097031 0.358692 -0.000000 0.000000 0.000000 0.000000 0.000000 0.000000 0.000000 0.664073 -4.828127 -0.808197 76.858249 15.411484 41.156466 179.771737 80.731376 179.950593 -7.794690 5.878895 -0.445126 0.176860 -0.531204 -0.000000 0.000000 0.000000 0.000000 0.000000 0.000000 0.000000 
4.909051 17.394798 0.450424 -173.994329 -68.086459 -171.258246 1.931875 -0.997987 3.584285 -0.271577 -0.995316 -2.460977 -5.987966 -0.918555 -1.398746 6.479222 -9.230802 -1.050451 -2.179028 -0.244926 1.697923 0.000000 0.000000 0.000000 5.596938 -0.833723 -0.032817 -53.280153 -3.357012 15.614263 -179.636575 -79.933311 179.973751 4.465905 1.311616 0.039884 -0.097017 0.354355 -0.000000 0.000000 0.000000 0.000000 0.000000 0.000000 0.000000 0.419488 -4.965302 -0.809492 76.645442 15.684437 41.440865 179.761034 80.457505 179.950530 -7.816708 5.842714 -0.443909 0.179554 -0.531600 -0.000000 0.000000 0.000000 0.000000 0.000000 0.000000 0.000000 
4.900180 17.394923 0.462942 -174.227541 -67.281500 -171.067170 2.131616 -1.038563 3.454074 -0.242227 -1.055570 -2.451206 -6.010255 -0.979900 -1.281971 6.471379 -9.366224 -1.034867 -2.113938 -0.241477 1.705932 0.000000 0.000000 0.000000 6.067941 -0.984934 0.030194 -51.030200 -4.209562 15.476227 -179.643605 -80.005072 179.974253 4.376586 1.438332 0.044215 -0.097461 0.350263 -0.000000 0.000000 0.000000 0.000000 0.000000 0.000000 0.000000 0.181303 -5.109060 -0.812814 76.412486 15.947285 41.680751 179.751863 80.175583 179.950373 -7.845909 5.806832 -0.443195 0.182059 -0.532001 -0.000000 0.000000 0.000000 0.000000 0.000000 0.000000 0.000000 
4.890975 17.395080 0.475871 -174.448319 -66.491391 -170.887745 2.317184 -1.076432 3.312793 -0.216665 -1.112895 -2.442514 -6.034968 -1.038767 -1.164001 6.489649 -9.513580 -1.021864 -2.042754 -0.237653 1.713524 0.000000 0.000000 0.000000 6.574229 -1.167802 0.097445 -48.637303 -5.108178 15.268581 -179.658696 -80.177851 179.974585 4.311898 1.537002 0.047440 -0.097567 0.346827 -0.000000 0.000000 0.000000 0.000000 0.000000 0.000000 0.000000 -0.041079 -5.264258 -0.814849 76.149587 16.214373 41.887707 179.743455 79.887773 179.950143 -7.883843 5.773052 -0.443084 0.184627 -0.532401 -0.000000 0.000000 0.000000 0.000000 0.000000 0.000000 0.000000 
4.881360 17.395426 0.489054 -174.661066 -65.722143 -170.711770 2.487862 -1.111305 3.157873 -0.195209 -1.166992 -2.434435 -6.063797 -1.094671 -1.040951 6.536888 -9.669964 -1.016241 -1.964983 -0.233340 1.719296 0.000000 0.000000 0.000000 7.084780 -1.354240 0.173687 -46.064582 -6.089541 15.006305 -179.680627 -80.463397 179.974771 4.267945 1.627272 0.050459 -0.097539 0.343691 -0.000000 0.000000 0.000000 0.000000 0.000000 0.000000 0.000000 -0.245615 -5.429424 -0.818434 75.859233 16.476253 42.055072 179.736101 79.586778 179.949882 -7.921737 5.740583 -0.442975 0.186932 -0.532787 -0.000000 0.000000 0.000000 0.000000 0.000000 0.000000 0.000000 
4.871439 17.395927 0.502461 -174.863674 -64.976460 -170.539398 2.638202 -1.145337 2.991133 -0.178202 -1.219601 -2.427231 -6.093593 -1.149536 -0.914830 6.618073 -9.836226 -1.018281 -1.880777 -0.228542 1.723170 0.000000 0.000000 0.000000 7.611311 -1.552083 0.257103 -43.333576 -7.119480 14.675636 -179.709603 -80.875699 179.974884 4.234920 1.704359 0.053071 -0.096880 0.340974 -0.000000 0.000000 0.000000 0.000000 0.000000 0.000000 0.000000 -0.425091 -5.606260 -0.822242 75.535280 16.740222 42.189053 179.729295 79.272162 179.949614 -7.958591 5.709654 -0.442971 0.189077 -0.533133 -0.000000 0.000000 0.000000 0.000000 0.000000 0.000000 0.000000 
